# xmcd
#
# Track frame offsets:
# 150
# 17610
# 30291
# 53426
# 68010
# 85490
# 98776
# 112807
# 129915
# 143120
#
# Disc length: 2401 seconds
#
# Revision: 0
# Processed by: cddbd v1.4PL0 Copyright (c) Steve Scherf et al.
# Submitted via: Audion 3.0.2 (http://www.panic.com/audion/)
#
DISCID=6e095f0a
DTITLE=Furay, Richie - Dance A Little Light
DYEAR=1900
DGENRE=
TTITLE0=It's Your Love
TTITLE1=Your Friends
TTITLE2=Ooh Dreamer
TTITLE3=Yesterday's Gone
TTITLE4=Someone Who Cares
TTITLE5=Dance A Little Light
TTITLE6=This Magic Moment
TTITLE7=Bittersweet Love
TTITLE8=You Better Believe It
TTITLE9=Stand Your Guard
EXTD=
EXTT0=
EXTT1=
EXTT2=
EXTT3=
EXTT4=
EXTT5=
EXTT6=
EXTT7=
EXTT8=
EXTT9=
PLAYORDER=
